<svg width="959" height="639" viewBox="0 0 959 639" fill="none" xmlns="http://www.w3.org/2000/svg">
<rect width="959" height="639" fill="transparent"/>
<rect x="31" y="267" width="140" height="140" rx="20" fill="#FD9362"/>
<rect width="140" height="50" transform="translate(31 407)" fill="white"/>
<path d="M21.3764 440.5V423.045H33.1378V426.088H25.0668V430.247H32.5327V433.29H25.0668V437.457H33.1719V440.5H21.3764ZM39.0376 427.409L41.4411 431.986L43.9041 427.409H47.6286L43.8359 433.955L47.7308 440.5H44.0234L41.4411 435.974L38.9013 440.5H35.1513L39.0376 433.955L35.2876 427.409H39.0376ZM56.7479 427.409V430.136H48.8643V427.409H56.7479ZM50.6541 424.273H54.2848V436.477C54.2848 436.812 54.3359 437.074 54.4382 437.261C54.5405 437.443 54.6825 437.571 54.8643 437.645C55.0518 437.719 55.2678 437.756 55.5121 437.756C55.6825 437.756 55.853 437.741 56.0234 437.713C56.1939 437.679 56.3246 437.653 56.4155 437.636L56.9865 440.338C56.8047 440.395 56.549 440.46 56.2195 440.534C55.8899 440.614 55.4893 440.662 55.0178 440.679C54.1428 440.713 53.3757 440.597 52.7166 440.33C52.0632 440.062 51.5547 439.648 51.1911 439.085C50.8274 438.523 50.6484 437.812 50.6541 436.955V424.273ZM64.9382 440.756C63.5916 440.756 62.4325 440.483 61.4609 439.938C60.495 439.386 59.7507 438.608 59.228 437.602C58.7053 436.591 58.4439 435.395 58.4439 434.014C58.4439 432.668 58.7053 431.486 59.228 430.469C59.7507 429.452 60.4865 428.659 61.4354 428.091C62.3899 427.523 63.5092 427.239 64.7933 427.239C65.657 427.239 66.4609 427.378 67.2053 427.656C67.9553 427.929 68.6087 428.341 69.1655 428.892C69.728 429.443 70.1655 430.136 70.478 430.972C70.7905 431.801 70.9467 432.773 70.9467 433.886V434.884H59.8928V432.634H67.5291C67.5291 432.111 67.4155 431.648 67.1882 431.244C66.9609 430.841 66.6456 430.526 66.2422 430.298C65.8445 430.065 65.3814 429.949 64.853 429.949C64.3018 429.949 63.8132 430.077 63.3871 430.332C62.9666 430.582 62.6371 430.92 62.3984 431.347C62.1598 431.767 62.0376 432.236 62.032 432.753V434.892C62.032 435.54 62.1513 436.099 62.3899 436.571C62.6342 437.043 62.978 437.406 63.4212 437.662C63.8643 437.918 64.3899 438.045 64.9979 438.045C65.4013 438.045 65.7706 437.989 66.1058 437.875C66.4411 437.761 66.728 437.591 66.9666 437.364C67.2053 437.136 67.3871 436.858 67.5121 436.528L70.87 436.75C70.6996 437.557 70.3501 438.261 69.8217 438.864C69.299 439.46 68.6229 439.926 67.7933 440.261C66.9695 440.591 66.0178 440.756 64.9382 440.756ZM73.3161 440.5V427.409H76.8359V429.693H76.9723C77.2109 428.881 77.6115 428.267 78.174 427.852C78.7365 427.432 79.3842 427.222 80.1172 427.222C80.299 427.222 80.495 427.233 80.7053 427.256C80.9155 427.278 81.1001 427.31 81.2592 427.349V430.571C81.0888 430.52 80.853 430.474 80.5518 430.435C80.2507 430.395 79.9751 430.375 79.7251 430.375C79.1911 430.375 78.7138 430.491 78.2933 430.724C77.8786 430.952 77.549 431.27 77.3047 431.679C77.0661 432.088 76.9467 432.56 76.9467 433.094V440.5H73.3161ZM86.767 432.932V440.5H83.1364V427.409H86.5966V429.719H86.75C87.0398 428.957 87.5256 428.355 88.2074 427.912C88.8892 427.463 89.7159 427.239 90.6875 427.239C91.5966 427.239 92.3892 427.438 93.0653 427.835C93.7415 428.233 94.267 428.801 94.642 429.54C95.017 430.273 95.2045 431.148 95.2045 432.165V440.5H91.5739V432.812C91.5795 432.011 91.375 431.386 90.9602 430.938C90.5455 430.483 89.9744 430.256 89.2472 430.256C88.7585 430.256 88.3267 430.361 87.9517 430.571C87.5824 430.781 87.2926 431.088 87.0824 431.491C86.8778 431.889 86.7727 432.369 86.767 432.932ZM101.799 440.747C100.964 440.747 100.219 440.602 99.5661 440.312C98.9126 440.017 98.3956 439.582 98.0149 439.009C97.6399 438.429 97.4524 437.707 97.4524 436.844C97.4524 436.116 97.5859 435.506 97.853 435.011C98.12 434.517 98.4837 434.119 98.9439 433.818C99.4041 433.517 99.9268 433.29 100.512 433.136C101.103 432.983 101.722 432.875 102.37 432.812C103.131 432.733 103.745 432.659 104.211 432.591C104.677 432.517 105.015 432.409 105.225 432.267C105.435 432.125 105.54 431.915 105.54 431.636V431.585C105.54 431.045 105.37 430.628 105.029 430.332C104.694 430.037 104.217 429.889 103.597 429.889C102.944 429.889 102.424 430.034 102.038 430.324C101.651 430.608 101.396 430.966 101.271 431.398L97.9126 431.125C98.0831 430.33 98.4183 429.642 98.9183 429.062C99.4183 428.477 100.063 428.028 100.853 427.716C101.648 427.398 102.569 427.239 103.614 427.239C104.342 427.239 105.038 427.324 105.702 427.494C106.373 427.665 106.967 427.929 107.484 428.287C108.006 428.645 108.418 429.105 108.719 429.668C109.021 430.224 109.171 430.892 109.171 431.67V440.5H105.728V438.685H105.626C105.415 439.094 105.134 439.455 104.782 439.767C104.43 440.074 104.006 440.315 103.512 440.491C103.018 440.662 102.447 440.747 101.799 440.747ZM102.839 438.241C103.373 438.241 103.844 438.136 104.254 437.926C104.663 437.71 104.984 437.42 105.217 437.057C105.45 436.693 105.566 436.281 105.566 435.821V434.432C105.452 434.506 105.296 434.574 105.097 434.636C104.904 434.693 104.685 434.747 104.441 434.798C104.197 434.844 103.952 434.886 103.708 434.926C103.464 434.96 103.242 434.991 103.043 435.02C102.617 435.082 102.245 435.182 101.927 435.318C101.609 435.455 101.362 435.639 101.185 435.872C101.009 436.099 100.921 436.384 100.921 436.724C100.921 437.219 101.1 437.597 101.458 437.858C101.822 438.114 102.282 438.241 102.839 438.241ZM115.619 423.045V440.5H111.988V423.045H115.619ZM124.15 440.5V423.045H135.707V426.088H127.84V430.247H134.94V433.29H127.84V440.5H124.15ZM143.075 440.756C141.751 440.756 140.606 440.474 139.64 439.912C138.68 439.344 137.938 438.554 137.415 437.543C136.893 436.526 136.631 435.347 136.631 434.006C136.631 432.653 136.893 431.472 137.415 430.46C137.938 429.443 138.68 428.653 139.64 428.091C140.606 427.523 141.751 427.239 143.075 427.239C144.398 427.239 145.54 427.523 146.501 428.091C147.467 428.653 148.211 429.443 148.734 430.46C149.256 431.472 149.518 432.653 149.518 434.006C149.518 435.347 149.256 436.526 148.734 437.543C148.211 438.554 147.467 439.344 146.501 439.912C145.54 440.474 144.398 440.756 143.075 440.756ZM143.092 437.943C143.694 437.943 144.197 437.773 144.6 437.432C145.004 437.085 145.308 436.614 145.512 436.017C145.722 435.42 145.827 434.741 145.827 433.98C145.827 433.219 145.722 432.54 145.512 431.943C145.308 431.347 145.004 430.875 144.6 430.528C144.197 430.182 143.694 430.009 143.092 430.009C142.484 430.009 141.972 430.182 141.558 430.528C141.148 430.875 140.839 431.347 140.629 431.943C140.424 432.54 140.322 433.219 140.322 433.98C140.322 434.741 140.424 435.42 140.629 436.017C140.839 436.614 141.148 437.085 141.558 437.432C141.972 437.773 142.484 437.943 143.092 437.943ZM151.879 440.5V427.409H155.398V429.693H155.535C155.773 428.881 156.174 428.267 156.737 427.852C157.299 427.432 157.947 427.222 158.68 427.222C158.862 427.222 159.058 427.233 159.268 427.256C159.478 427.278 159.663 427.31 159.822 427.349V430.571C159.651 430.52 159.415 430.474 159.114 430.435C158.813 430.395 158.538 430.375 158.288 430.375C157.754 430.375 157.276 430.491 156.856 430.724C156.441 430.952 156.112 431.27 155.867 431.679C155.629 432.088 155.509 432.56 155.509 433.094V440.5H151.879ZM161.699 440.5V427.409H165.159V429.719H165.312C165.585 428.952 166.04 428.347 166.676 427.903C167.312 427.46 168.074 427.239 168.96 427.239C169.858 427.239 170.622 427.463 171.253 427.912C171.884 428.355 172.304 428.957 172.514 429.719H172.651C172.918 428.969 173.401 428.369 174.099 427.92C174.804 427.466 175.636 427.239 176.597 427.239C177.818 427.239 178.81 427.628 179.571 428.406C180.338 429.179 180.722 430.276 180.722 431.696V440.5H177.099V432.412C177.099 431.685 176.906 431.139 176.52 430.776C176.134 430.412 175.651 430.23 175.071 430.23C174.412 430.23 173.898 430.44 173.528 430.861C173.159 431.276 172.974 431.824 172.974 432.506V440.5H169.455V432.335C169.455 431.693 169.27 431.182 168.901 430.801C168.537 430.42 168.057 430.23 167.46 430.23C167.057 430.23 166.693 430.332 166.369 430.537C166.051 430.736 165.798 431.017 165.611 431.381C165.423 431.739 165.33 432.159 165.33 432.642V440.5H161.699Z" fill="#354D6B"/>
<g clip-path="url(#clip0_29_10)">
<path fill-rule="evenodd" clip-rule="evenodd" d="M101.5 299.925C80.7906 299.925 64 316.712 64 337.425C64 353.994 74.7438 368.05 89.6438 373.009C91.5188 373.356 92.2063 372.197 92.2063 371.206C92.2063 370.312 92.1719 367.359 92.1563 364.225C81.725 366.494 79.5219 359.8 79.5219 359.8C77.8156 355.466 75.3594 354.312 75.3594 354.312C71.9563 351.984 75.6156 352.034 75.6156 352.034C79.3813 352.3 81.3625 355.9 81.3625 355.9C84.7063 361.631 90.1344 359.975 92.275 359.016C92.6125 356.591 93.5844 354.937 94.6563 354C86.3281 353.053 77.5719 349.837 77.5719 335.469C77.5719 331.375 79.0375 328.028 81.4375 325.403C81.0469 324.456 79.7625 320.644 81.8 315.478C81.8 315.478 84.95 314.472 92.1156 319.322C95.1063 318.491 98.3125 318.075 101.5 318.059C104.688 318.075 107.897 318.491 110.894 319.322C118.05 314.469 121.197 315.478 121.197 315.478C123.238 320.644 121.953 324.456 121.566 325.403C123.969 328.028 125.425 331.375 125.425 335.469C125.425 349.872 116.653 353.044 108.303 353.972C109.647 355.134 110.847 357.419 110.847 360.916C110.847 365.934 110.803 369.972 110.803 371.206C110.803 372.203 111.478 373.375 113.378 373.006C128.272 368.041 139.003 353.991 139.003 337.428C139 316.716 122.209 299.925 101.5 299.925Z" fill="white"/>
<path d="M78.2032 353.769C78.1219 353.956 77.8282 354.012 77.5594 353.884C77.2875 353.762 77.1344 353.506 77.2219 353.322C77.3032 353.131 77.5969 353.078 77.8688 353.206C78.1407 353.325 78.2969 353.581 78.2032 353.769Z" fill="white"/>
<path d="M79.7219 355.462C79.5438 355.628 79.1938 355.55 78.9563 355.291C78.7094 355.028 78.6657 354.678 78.8469 354.512C79.0313 354.347 79.3688 354.425 79.6157 354.687C79.8626 354.947 79.9094 355.294 79.7219 355.462Z" fill="white"/>
<path d="M81.2 357.622C80.9687 357.781 80.5937 357.631 80.3625 357.3C80.1312 356.966 80.1312 356.566 80.3687 356.406C80.6 356.247 80.9719 356.391 81.2062 356.722C81.4344 357.059 81.4344 357.459 81.2 357.622Z" fill="white"/>
<path d="M83.225 359.709C83.0188 359.938 82.5813 359.875 82.2625 359.566C81.9344 359.263 81.8438 358.834 82.05 358.606C82.2594 358.378 82.7 358.444 83.0219 358.75C83.3469 359.053 83.4438 359.484 83.225 359.709Z" fill="white"/>
<path d="M86.0219 360.919C85.9312 361.212 85.5094 361.347 85.0844 361.222C84.6594 361.094 84.3812 360.75 84.4687 360.453C84.5562 360.156 84.9812 360.019 85.4094 360.153C85.8312 360.278 86.1094 360.622 86.0219 360.919Z" fill="white"/>
<path d="M89.0907 361.144C89.1 361.453 88.7406 361.709 88.2938 361.716C87.8469 361.725 87.4813 361.475 87.4781 361.172C87.4781 360.859 87.8313 360.606 88.2781 360.597C88.725 360.587 89.0907 360.837 89.0907 361.144Z" fill="white"/>
<path d="M91.9469 360.659C92 360.959 91.6906 361.272 91.2469 361.353C90.8125 361.434 90.4094 361.247 90.3531 360.947C90.3 360.638 90.6156 360.328 91.05 360.247C91.4906 360.169 91.8906 360.35 91.9469 360.659Z" fill="white"/>
</g>
<rect x="269" y="105" width="140" height="140" rx="20" fill="#1E88E5"/>
<rect width="140" height="50" transform="translate(269 245)" fill="white"/>
<path d="M252.509 278.5V261.045H259.396C260.719 261.045 261.847 261.298 262.779 261.804C263.711 262.304 264.421 263 264.91 263.892C265.404 264.778 265.651 265.801 265.651 266.96C265.651 268.119 265.401 269.142 264.901 270.028C264.401 270.915 263.677 271.605 262.728 272.099C261.785 272.594 260.643 272.841 259.302 272.841H254.913V269.884H258.705C259.415 269.884 260.001 269.761 260.461 269.517C260.927 269.267 261.273 268.923 261.501 268.486C261.734 268.043 261.85 267.534 261.85 266.96C261.85 266.381 261.734 265.875 261.501 265.443C261.273 265.006 260.927 264.668 260.461 264.429C259.995 264.185 259.404 264.062 258.688 264.062H256.2V278.5H252.509ZM273.735 278.756C272.388 278.756 271.229 278.483 270.258 277.938C269.292 277.386 268.548 276.608 268.025 275.602C267.502 274.591 267.241 273.395 267.241 272.014C267.241 270.668 267.502 269.486 268.025 268.469C268.548 267.452 269.283 266.659 270.232 266.091C271.187 265.523 272.306 265.239 273.59 265.239C274.454 265.239 275.258 265.378 276.002 265.656C276.752 265.929 277.406 266.341 277.962 266.892C278.525 267.443 278.962 268.136 279.275 268.972C279.587 269.801 279.744 270.773 279.744 271.886V272.884H268.69V270.634H276.326C276.326 270.111 276.212 269.648 275.985 269.244C275.758 268.841 275.442 268.526 275.039 268.298C274.641 268.065 274.178 267.949 273.65 267.949C273.099 267.949 272.61 268.077 272.184 268.332C271.763 268.582 271.434 268.92 271.195 269.347C270.957 269.767 270.835 270.236 270.829 270.753V272.892C270.829 273.54 270.948 274.099 271.187 274.571C271.431 275.043 271.775 275.406 272.218 275.662C272.661 275.918 273.187 276.045 273.795 276.045C274.198 276.045 274.567 275.989 274.903 275.875C275.238 275.761 275.525 275.591 275.763 275.364C276.002 275.136 276.184 274.858 276.309 274.528L279.667 274.75C279.496 275.557 279.147 276.261 278.619 276.864C278.096 277.46 277.42 277.926 276.59 278.261C275.766 278.591 274.815 278.756 273.735 278.756ZM282.113 278.5V265.409H285.633V267.693H285.769C286.008 266.881 286.408 266.267 286.971 265.852C287.533 265.432 288.181 265.222 288.914 265.222C289.096 265.222 289.292 265.233 289.502 265.256C289.712 265.278 289.897 265.31 290.056 265.349V268.571C289.886 268.52 289.65 268.474 289.349 268.435C289.048 268.395 288.772 268.375 288.522 268.375C287.988 268.375 287.511 268.491 287.09 268.724C286.675 268.952 286.346 269.27 286.102 269.679C285.863 270.088 285.744 270.56 285.744 271.094V278.5H282.113ZM291.933 278.5V265.409H295.393V267.719H295.547C295.82 266.952 296.274 266.347 296.911 265.903C297.547 265.46 298.308 265.239 299.195 265.239C300.092 265.239 300.857 265.463 301.487 265.912C302.118 266.355 302.538 266.957 302.749 267.719H302.885C303.152 266.969 303.635 266.369 304.334 265.92C305.038 265.466 305.871 265.239 306.831 265.239C308.053 265.239 309.044 265.628 309.805 266.406C310.572 267.179 310.956 268.276 310.956 269.696V278.5H307.334V270.412C307.334 269.685 307.141 269.139 306.754 268.776C306.368 268.412 305.885 268.23 305.305 268.23C304.646 268.23 304.132 268.44 303.763 268.861C303.393 269.276 303.209 269.824 303.209 270.506V278.5H299.689V270.335C299.689 269.693 299.504 269.182 299.135 268.801C298.771 268.42 298.291 268.23 297.695 268.23C297.291 268.23 296.928 268.332 296.604 268.537C296.286 268.736 296.033 269.017 295.845 269.381C295.658 269.739 295.564 270.159 295.564 270.642V278.5H291.933ZM313.824 278.5V265.409H317.455V278.5H313.824ZM315.648 263.722C315.108 263.722 314.645 263.543 314.259 263.185C313.878 262.821 313.688 262.386 313.688 261.881C313.688 261.381 313.878 260.952 314.259 260.594C314.645 260.23 315.108 260.048 315.648 260.048C316.188 260.048 316.648 260.23 317.028 260.594C317.415 260.952 317.608 261.381 317.608 261.881C317.608 262.386 317.415 262.821 317.028 263.185C316.648 263.543 316.188 263.722 315.648 263.722ZM331.255 269.142L327.931 269.347C327.874 269.062 327.752 268.807 327.565 268.58C327.377 268.347 327.13 268.162 326.823 268.026C326.522 267.884 326.161 267.812 325.741 267.812C325.178 267.812 324.704 267.932 324.317 268.17C323.931 268.403 323.738 268.716 323.738 269.108C323.738 269.42 323.863 269.685 324.113 269.901C324.363 270.116 324.792 270.29 325.4 270.42L327.769 270.898C329.042 271.159 329.991 271.58 330.616 272.159C331.241 272.739 331.553 273.5 331.553 274.443C331.553 275.301 331.3 276.054 330.795 276.702C330.295 277.349 329.607 277.855 328.732 278.219C327.863 278.577 326.86 278.756 325.724 278.756C323.991 278.756 322.61 278.395 321.582 277.673C320.559 276.946 319.96 275.957 319.783 274.707L323.354 274.52C323.462 275.048 323.724 275.452 324.138 275.73C324.553 276.003 325.085 276.139 325.732 276.139C326.369 276.139 326.88 276.017 327.266 275.773C327.658 275.523 327.857 275.202 327.863 274.81C327.857 274.48 327.718 274.21 327.445 274C327.173 273.784 326.752 273.619 326.184 273.506L323.917 273.054C322.638 272.798 321.687 272.355 321.062 271.724C320.442 271.094 320.133 270.29 320.133 269.312C320.133 268.472 320.36 267.747 320.815 267.139C321.275 266.531 321.92 266.062 322.749 265.733C323.585 265.403 324.562 265.239 325.681 265.239C327.335 265.239 328.636 265.588 329.585 266.287C330.539 266.986 331.096 267.937 331.255 269.142ZM344.732 269.142L341.408 269.347C341.351 269.062 341.229 268.807 341.041 268.58C340.854 268.347 340.607 268.162 340.3 268.026C339.999 267.884 339.638 267.812 339.217 267.812C338.655 267.812 338.18 267.932 337.794 268.17C337.408 268.403 337.214 268.716 337.214 269.108C337.214 269.42 337.339 269.685 337.589 269.901C337.839 270.116 338.268 270.29 338.876 270.42L341.246 270.898C342.518 271.159 343.467 271.58 344.092 272.159C344.717 272.739 345.03 273.5 345.03 274.443C345.03 275.301 344.777 276.054 344.271 276.702C343.771 277.349 343.084 277.855 342.209 278.219C341.339 278.577 340.337 278.756 339.2 278.756C337.467 278.756 336.087 278.395 335.058 277.673C334.036 276.946 333.436 275.957 333.26 274.707L336.831 274.52C336.939 275.048 337.2 275.452 337.615 275.73C338.03 276.003 338.561 276.139 339.209 276.139C339.845 276.139 340.357 276.017 340.743 275.773C341.135 275.523 341.334 275.202 341.339 274.81C341.334 274.48 341.195 274.21 340.922 274C340.649 273.784 340.229 273.619 339.661 273.506L337.393 273.054C336.115 272.798 335.163 272.355 334.538 271.724C333.919 271.094 333.609 270.29 333.609 269.312C333.609 268.472 333.837 267.747 334.291 267.139C334.751 266.531 335.396 266.062 336.226 265.733C337.061 265.403 338.038 265.239 339.158 265.239C340.811 265.239 342.112 265.588 343.061 266.287C344.016 266.986 344.572 267.937 344.732 269.142ZM347.316 278.5V265.409H350.947V278.5H347.316ZM349.14 263.722C348.6 263.722 348.137 263.543 347.751 263.185C347.37 262.821 347.18 262.386 347.18 261.881C347.18 261.381 347.37 260.952 347.751 260.594C348.137 260.23 348.6 260.048 349.14 260.048C349.68 260.048 350.14 260.23 350.521 260.594C350.907 260.952 351.1 261.381 351.1 261.881C351.1 262.386 350.907 262.821 350.521 263.185C350.14 263.543 349.68 263.722 349.14 263.722ZM359.77 278.756C358.446 278.756 357.301 278.474 356.335 277.912C355.375 277.344 354.634 276.554 354.111 275.543C353.588 274.526 353.327 273.347 353.327 272.006C353.327 270.653 353.588 269.472 354.111 268.46C354.634 267.443 355.375 266.653 356.335 266.091C357.301 265.523 358.446 265.239 359.77 265.239C361.094 265.239 362.236 265.523 363.196 266.091C364.162 266.653 364.906 267.443 365.429 268.46C365.952 269.472 366.213 270.653 366.213 272.006C366.213 273.347 365.952 274.526 365.429 275.543C364.906 276.554 364.162 277.344 363.196 277.912C362.236 278.474 361.094 278.756 359.77 278.756ZM359.787 275.943C360.389 275.943 360.892 275.773 361.295 275.432C361.699 275.085 362.003 274.614 362.207 274.017C362.418 273.42 362.523 272.741 362.523 271.98C362.523 271.219 362.418 270.54 362.207 269.943C362.003 269.347 361.699 268.875 361.295 268.528C360.892 268.182 360.389 268.009 359.787 268.009C359.179 268.009 358.668 268.182 358.253 268.528C357.844 268.875 357.534 269.347 357.324 269.943C357.119 270.54 357.017 271.219 357.017 271.98C357.017 272.741 357.119 273.42 357.324 274.017C357.534 274.614 357.844 275.085 358.253 275.432C358.668 275.773 359.179 275.943 359.787 275.943ZM372.205 270.932V278.5H368.574V265.409H372.034V267.719H372.188C372.477 266.957 372.963 266.355 373.645 265.912C374.327 265.463 375.153 265.239 376.125 265.239C377.034 265.239 377.827 265.438 378.503 265.835C379.179 266.233 379.705 266.801 380.08 267.54C380.455 268.273 380.642 269.148 380.642 270.165V278.5H377.011V270.812C377.017 270.011 376.813 269.386 376.398 268.938C375.983 268.483 375.412 268.256 374.685 268.256C374.196 268.256 373.764 268.361 373.389 268.571C373.02 268.781 372.73 269.088 372.52 269.491C372.315 269.889 372.21 270.369 372.205 270.932ZM398.595 266.065C398.527 265.378 398.234 264.844 397.717 264.463C397.2 264.082 396.499 263.892 395.612 263.892C395.01 263.892 394.501 263.977 394.087 264.148C393.672 264.312 393.354 264.543 393.132 264.838C392.916 265.134 392.808 265.469 392.808 265.844C392.797 266.156 392.862 266.429 393.004 266.662C393.152 266.895 393.354 267.097 393.609 267.267C393.865 267.432 394.161 267.577 394.496 267.702C394.831 267.821 395.189 267.923 395.57 268.009L397.138 268.384C397.899 268.554 398.598 268.781 399.234 269.065C399.871 269.349 400.422 269.699 400.888 270.114C401.354 270.528 401.714 271.017 401.97 271.58C402.232 272.142 402.365 272.787 402.371 273.514C402.365 274.582 402.092 275.509 401.553 276.293C401.018 277.071 400.246 277.676 399.234 278.108C398.229 278.534 397.016 278.747 395.595 278.747C394.186 278.747 392.959 278.531 391.913 278.099C390.874 277.668 390.061 277.028 389.476 276.182C388.896 275.33 388.592 274.276 388.564 273.02H392.135C392.175 273.605 392.342 274.094 392.638 274.486C392.939 274.872 393.339 275.165 393.839 275.364C394.345 275.557 394.916 275.653 395.553 275.653C396.178 275.653 396.72 275.562 397.18 275.381C397.646 275.199 398.007 274.946 398.263 274.622C398.518 274.298 398.646 273.926 398.646 273.506C398.646 273.114 398.53 272.784 398.297 272.517C398.07 272.25 397.734 272.023 397.291 271.835C396.854 271.648 396.317 271.477 395.68 271.324L393.78 270.847C392.308 270.489 391.146 269.929 390.294 269.168C389.442 268.406 389.018 267.381 389.024 266.091C389.018 265.034 389.3 264.111 389.868 263.321C390.442 262.531 391.229 261.915 392.229 261.472C393.229 261.028 394.365 260.807 395.638 260.807C396.933 260.807 398.064 261.028 399.03 261.472C400.001 261.915 400.757 262.531 401.297 263.321C401.837 264.111 402.115 265.026 402.132 266.065H398.595ZM410.751 278.756C409.404 278.756 408.245 278.483 407.273 277.938C406.308 277.386 405.563 276.608 405.04 275.602C404.518 274.591 404.256 273.395 404.256 272.014C404.256 270.668 404.518 269.486 405.04 268.469C405.563 267.452 406.299 266.659 407.248 266.091C408.202 265.523 409.322 265.239 410.606 265.239C411.469 265.239 412.273 265.378 413.018 265.656C413.768 265.929 414.421 266.341 414.978 266.892C415.54 267.443 415.978 268.136 416.29 268.972C416.603 269.801 416.759 270.773 416.759 271.886V272.884H405.705V270.634H413.342C413.342 270.111 413.228 269.648 413.001 269.244C412.773 268.841 412.458 268.526 412.055 268.298C411.657 268.065 411.194 267.949 410.665 267.949C410.114 267.949 409.626 268.077 409.2 268.332C408.779 268.582 408.45 268.92 408.211 269.347C407.972 269.767 407.85 270.236 407.844 270.753V272.892C407.844 273.54 407.964 274.099 408.202 274.571C408.447 275.043 408.79 275.406 409.234 275.662C409.677 275.918 410.202 276.045 410.81 276.045C411.214 276.045 411.583 275.989 411.918 275.875C412.254 275.761 412.54 275.591 412.779 275.364C413.018 275.136 413.2 274.858 413.325 274.528L416.683 274.75C416.512 275.557 416.163 276.261 415.634 276.864C415.112 277.46 414.435 277.926 413.606 278.261C412.782 278.591 411.83 278.756 410.751 278.756ZM426.092 265.409V268.136H418.208V265.409H426.092ZM419.998 262.273H423.629V274.477C423.629 274.812 423.68 275.074 423.782 275.261C423.884 275.443 424.026 275.571 424.208 275.645C424.396 275.719 424.612 275.756 424.856 275.756C425.026 275.756 425.197 275.741 425.367 275.713C425.538 275.679 425.668 275.653 425.759 275.636L426.33 278.338C426.148 278.395 425.893 278.46 425.563 278.534C425.234 278.614 424.833 278.662 424.362 278.679C423.487 278.713 422.719 278.597 422.06 278.33C421.407 278.062 420.898 277.648 420.535 277.085C420.171 276.523 419.992 275.812 419.998 274.955V262.273Z" fill="#354D6B"/>
<path d="M360.041 143.644L340.481 137.159C339.847 136.947 339.15 136.947 338.516 137.159L318.956 143.644C312.55 145.769 308.247 151.728 308.247 158.475V174.634C308.247 195.144 330.137 207.688 336.847 211.041C336.847 211.041 338.191 212 339.503 212C340.816 212 341.975 211.25 341.975 211.25C348.725 208.534 370.747 197.872 370.747 174.634V158.475C370.747 151.728 366.447 145.769 360.041 143.644ZM364.5 174.634C364.5 193.953 345.475 203.106 339.647 205.45C333.744 202.5 314.5 191.563 314.5 174.634V158.475C314.5 154.428 317.081 150.853 320.925 149.575L339.5 143.416L358.075 149.575C361.916 150.85 364.5 154.428 364.5 158.475V174.634ZM347.312 166.688C347.312 169.891 345.384 172.644 342.625 173.847V183.875C342.625 185.603 341.228 187 339.5 187C337.772 187 336.375 185.603 336.375 183.875V173.847C333.616 172.641 331.687 169.891 331.687 166.688C331.687 162.372 335.184 158.875 339.5 158.875C343.816 158.875 347.312 162.372 347.312 166.688Z" fill="white"/>
<rect x="529" y="42" width="140" height="140" rx="20" fill="#1E88E5"/>
<rect width="140" height="50" transform="translate(529 182)" fill="white"/>
<path d="M572.826 215.5V198.045H584.382V201.088H576.516V205.247H583.615V208.29H576.516V215.5H572.826ZM590.427 198.045V215.5H586.797V198.045H590.427ZM599.25 215.756C597.926 215.756 596.782 215.474 595.816 214.912C594.855 214.344 594.114 213.554 593.591 212.543C593.069 211.526 592.807 210.347 592.807 209.006C592.807 207.653 593.069 206.472 593.591 205.46C594.114 204.443 594.855 203.653 595.816 203.091C596.782 202.523 597.926 202.239 599.25 202.239C600.574 202.239 601.716 202.523 602.676 203.091C603.642 203.653 604.387 204.443 604.909 205.46C605.432 206.472 605.694 207.653 605.694 209.006C605.694 210.347 605.432 211.526 604.909 212.543C604.387 213.554 603.642 214.344 602.676 214.912C601.716 215.474 600.574 215.756 599.25 215.756ZM599.267 212.943C599.87 212.943 600.373 212.773 600.776 212.432C601.179 212.085 601.483 211.614 601.688 211.017C601.898 210.42 602.003 209.741 602.003 208.98C602.003 208.219 601.898 207.54 601.688 206.943C601.483 206.347 601.179 205.875 600.776 205.528C600.373 205.182 599.87 205.009 599.267 205.009C598.659 205.009 598.148 205.182 597.733 205.528C597.324 205.875 597.015 206.347 596.804 206.943C596.6 207.54 596.498 208.219 596.498 208.98C596.498 209.741 596.6 210.42 596.804 211.017C597.015 211.614 597.324 212.085 597.733 212.432C598.148 212.773 598.659 212.943 599.267 212.943ZM610.309 215.5L606.746 202.409H610.419L612.448 211.205H612.567L614.681 202.409H618.286L620.434 211.153H620.544L622.539 202.409H626.203L622.65 215.5H618.806L616.556 207.267H616.394L614.144 215.5H610.309Z" fill="#354D6B"/>
<g clip-path="url(#clip1_29_10)">
<path d="M637 86.5C637 79.6063 631.394 74 624.5 74C617.606 74 612 79.6063 612 86.5C612 92.3125 615.991 97.2125 621.375 98.6031V99C621.375 104.169 617.169 108.375 612 108.375H587C583.484 108.375 580.238 109.544 577.625 111.506V98.6031C583.009 97.2125 587 92.3125 587 86.5C587 79.6063 581.394 74 574.5 74C567.606 74 562 79.6063 562 86.5C562 92.3125 565.991 97.2125 571.375 98.6031V124.394C565.991 125.784 562 130.684 562 136.497C562 143.391 567.606 148.997 574.5 148.997C581.394 148.997 587 143.391 587 136.497C587 130.684 583.009 125.784 577.625 124.394V123.997C577.625 118.828 581.831 114.622 587 114.622H612C620.616 114.622 627.625 107.613 627.625 98.9969V98.6C633.009 97.2094 637 92.3125 637 86.5ZM568.25 86.5C568.25 83.0531 571.053 80.25 574.5 80.25C577.947 80.25 580.75 83.0531 580.75 86.5C580.75 89.9469 577.947 92.75 574.5 92.75C571.053 92.75 568.25 89.9469 568.25 86.5ZM580.75 136.5C580.75 139.947 577.947 142.75 574.5 142.75C571.053 142.75 568.25 139.947 568.25 136.5C568.25 133.053 571.053 130.25 574.5 130.25C577.947 130.25 580.75 133.053 580.75 136.5ZM624.5 92.75C621.053 92.75 618.25 89.9469 618.25 86.5C618.25 83.0531 621.053 80.25 624.5 80.25C627.947 80.25 630.75 83.0531 630.75 86.5C630.75 89.9469 627.947 92.75 624.5 92.75Z" fill="white"/>
</g>
<rect x="627" y="407" width="140" height="140" rx="20" fill="#1E88E5"/>
<rect width="140" height="50" transform="translate(627 547)" fill="white"/>
<path d="M658.673 580.5V563.045H662.364V577.457H669.847V580.5H658.673ZM675.955 580.747C675.12 580.747 674.376 580.602 673.722 580.312C673.069 580.017 672.552 579.582 672.171 579.009C671.796 578.429 671.609 577.707 671.609 576.844C671.609 576.116 671.742 575.506 672.009 575.011C672.276 574.517 672.64 574.119 673.1 573.818C673.56 573.517 674.083 573.29 674.668 573.136C675.259 572.983 675.879 572.875 676.526 572.812C677.288 572.733 677.901 572.659 678.367 572.591C678.833 572.517 679.171 572.409 679.381 572.267C679.592 572.125 679.697 571.915 679.697 571.636V571.585C679.697 571.045 679.526 570.628 679.185 570.332C678.85 570.037 678.373 569.889 677.754 569.889C677.1 569.889 676.58 570.034 676.194 570.324C675.808 570.608 675.552 570.966 675.427 571.398L672.069 571.125C672.239 570.33 672.575 569.642 673.075 569.062C673.575 568.477 674.219 568.028 675.009 567.716C675.805 567.398 676.725 567.239 677.771 567.239C678.498 567.239 679.194 567.324 679.859 567.494C680.529 567.665 681.123 567.929 681.64 568.287C682.163 568.645 682.575 569.105 682.876 569.668C683.177 570.224 683.327 570.892 683.327 571.67V580.5H679.884V578.685H679.782C679.572 579.094 679.29 579.455 678.938 579.767C678.586 580.074 678.163 580.315 677.668 580.491C677.174 580.662 676.603 580.747 675.955 580.747ZM676.995 578.241C677.529 578.241 678.001 578.136 678.41 577.926C678.819 577.71 679.14 577.42 679.373 577.057C679.606 576.693 679.722 576.281 679.722 575.821V574.432C679.609 574.506 679.452 574.574 679.254 574.636C679.06 574.693 678.842 574.747 678.597 574.798C678.353 574.844 678.109 574.886 677.864 574.926C677.62 574.96 677.398 574.991 677.2 575.02C676.773 575.082 676.401 575.182 676.083 575.318C675.765 575.455 675.518 575.639 675.342 575.872C675.165 576.099 675.077 576.384 675.077 576.724C675.077 577.219 675.256 577.597 675.614 577.858C675.978 578.114 676.438 578.241 676.995 578.241ZM687.917 585.409C687.457 585.409 687.025 585.372 686.621 585.298C686.224 585.23 685.894 585.142 685.633 585.034L686.451 582.324C686.877 582.455 687.261 582.526 687.602 582.537C687.948 582.548 688.246 582.469 688.496 582.298C688.752 582.128 688.96 581.838 689.119 581.429L689.332 580.875L684.636 567.409H688.454L691.164 577.023H691.3L694.036 567.409H697.88L692.792 581.915C692.548 582.619 692.215 583.233 691.795 583.756C691.38 584.284 690.854 584.69 690.218 584.974C689.582 585.264 688.815 585.409 687.917 585.409ZM705.231 580.756C703.907 580.756 702.762 580.474 701.796 579.912C700.836 579.344 700.094 578.554 699.572 577.543C699.049 576.526 698.788 575.347 698.788 574.006C698.788 572.653 699.049 571.472 699.572 570.46C700.094 569.443 700.836 568.653 701.796 568.091C702.762 567.523 703.907 567.239 705.231 567.239C706.555 567.239 707.697 567.523 708.657 568.091C709.623 568.653 710.367 569.443 710.89 570.46C711.413 571.472 711.674 572.653 711.674 574.006C711.674 575.347 711.413 576.526 710.89 577.543C710.367 578.554 709.623 579.344 708.657 579.912C707.697 580.474 706.555 580.756 705.231 580.756ZM705.248 577.943C705.85 577.943 706.353 577.773 706.756 577.432C707.16 577.085 707.464 576.614 707.668 576.017C707.879 575.42 707.984 574.741 707.984 573.98C707.984 573.219 707.879 572.54 707.668 571.943C707.464 571.347 707.16 570.875 706.756 570.528C706.353 570.182 705.85 570.009 705.248 570.009C704.64 570.009 704.129 570.182 703.714 570.528C703.305 570.875 702.995 571.347 702.785 571.943C702.58 572.54 702.478 573.219 702.478 573.98C702.478 574.741 702.58 575.42 702.785 576.017C702.995 576.614 703.305 577.085 703.714 577.432C704.129 577.773 704.64 577.943 705.248 577.943ZM722.43 574.926V567.409H726.06V580.5H722.575V578.122H722.438C722.143 578.889 721.651 579.506 720.964 579.972C720.282 580.437 719.45 580.67 718.467 580.67C717.592 580.67 716.822 580.472 716.157 580.074C715.492 579.676 714.972 579.111 714.597 578.378C714.228 577.645 714.04 576.767 714.035 575.744V567.409H717.665V575.097C717.671 575.869 717.879 576.48 718.288 576.929C718.697 577.378 719.245 577.602 719.933 577.602C720.37 577.602 720.779 577.503 721.16 577.304C721.54 577.099 721.847 576.798 722.08 576.401C722.319 576.003 722.435 575.511 722.43 574.926ZM735.928 567.409V570.136H728.044V567.409H735.928ZM729.834 564.273H733.464V576.477C733.464 576.812 733.516 577.074 733.618 577.261C733.72 577.443 733.862 577.571 734.044 577.645C734.232 577.719 734.447 577.756 734.692 577.756C734.862 577.756 735.033 577.741 735.203 577.713C735.374 577.679 735.504 577.653 735.595 577.636L736.166 580.338C735.984 580.395 735.729 580.46 735.399 580.534C735.07 580.614 734.669 580.662 734.197 580.679C733.322 580.713 732.555 580.597 731.896 580.33C731.243 580.062 730.734 579.648 730.371 579.085C730.007 578.523 729.828 577.812 729.834 576.955V564.273Z" fill="#354D6B"/>
<path d="M719.375 445.25H675.625C667.009 445.25 660 452.259 660 460.875V492.125C660 500.741 667.009 507.75 675.625 507.75H719.375C727.991 507.75 735 500.741 735 492.125V460.875C735 452.259 727.991 445.25 719.375 445.25ZM675.625 451.5H719.375C724.544 451.5 728.75 455.706 728.75 460.875H666.25C666.25 455.706 670.456 451.5 675.625 451.5ZM666.25 492.125V467.125H681.875V501.5H675.625C670.456 501.5 666.25 497.294 666.25 492.125ZM719.375 501.5H688.125V467.125H728.75V492.125C728.75 497.294 724.544 501.5 719.375 501.5Z" fill="white"/>
<rect x="364" y="362" width="140" height="140" rx="20" fill="#1E88E5"/>
<rect width="140" height="50" transform="translate(364 502)" fill="white"/>
<path d="M373.656 524.156H369.923C369.855 523.673 369.716 523.244 369.505 522.869C369.295 522.489 369.025 522.165 368.696 521.898C368.366 521.631 367.985 521.426 367.554 521.284C367.127 521.142 366.664 521.071 366.164 521.071C365.261 521.071 364.474 521.295 363.804 521.744C363.133 522.187 362.613 522.835 362.244 523.688C361.875 524.534 361.69 525.562 361.69 526.773C361.69 528.017 361.875 529.062 362.244 529.909C362.619 530.756 363.142 531.395 363.812 531.827C364.483 532.259 365.258 532.474 366.139 532.474C366.633 532.474 367.091 532.409 367.511 532.278C367.937 532.148 368.315 531.957 368.645 531.707C368.974 531.452 369.247 531.142 369.463 530.778C369.684 530.415 369.838 530 369.923 529.534L373.656 529.551C373.559 530.352 373.318 531.125 372.931 531.869C372.551 532.608 372.037 533.27 371.389 533.855C370.747 534.435 369.98 534.895 369.088 535.236C368.201 535.571 367.199 535.739 366.079 535.739C364.522 535.739 363.13 535.386 361.903 534.682C360.681 533.977 359.716 532.957 359.005 531.622C358.301 530.287 357.949 528.67 357.949 526.773C357.949 524.869 358.306 523.25 359.022 521.915C359.738 520.58 360.71 519.562 361.937 518.864C363.164 518.159 364.545 517.807 366.079 517.807C367.091 517.807 368.028 517.949 368.892 518.233C369.761 518.517 370.531 518.932 371.201 519.477C371.872 520.017 372.417 520.679 372.838 521.463C373.264 522.247 373.537 523.145 373.656 524.156ZM384.629 529.926V522.409H388.26V535.5H384.774V533.122H384.637C384.342 533.889 383.85 534.506 383.163 534.972C382.481 535.437 381.649 535.67 380.666 535.67C379.791 535.67 379.021 535.472 378.356 535.074C377.691 534.676 377.172 534.111 376.797 533.378C376.427 532.645 376.24 531.767 376.234 530.744V522.409H379.865V530.097C379.87 530.869 380.078 531.48 380.487 531.929C380.896 532.378 381.444 532.602 382.132 532.602C382.569 532.602 382.978 532.503 383.359 532.304C383.74 532.099 384.047 531.798 384.279 531.401C384.518 531.003 384.635 530.511 384.629 529.926ZM402.056 526.142L398.732 526.347C398.675 526.062 398.553 525.807 398.365 525.58C398.178 525.347 397.931 525.162 397.624 525.026C397.323 524.884 396.962 524.812 396.542 524.812C395.979 524.812 395.505 524.932 395.118 525.17C394.732 525.403 394.539 525.716 394.539 526.108C394.539 526.42 394.664 526.685 394.914 526.901C395.164 527.116 395.593 527.29 396.201 527.42L398.57 527.898C399.843 528.159 400.792 528.58 401.417 529.159C402.042 529.739 402.354 530.5 402.354 531.443C402.354 532.301 402.101 533.054 401.596 533.702C401.096 534.349 400.408 534.855 399.533 535.219C398.664 535.577 397.661 535.756 396.525 535.756C394.792 535.756 393.411 535.395 392.382 534.673C391.36 533.946 390.76 532.957 390.584 531.707L394.155 531.52C394.263 532.048 394.525 532.452 394.939 532.73C395.354 533.003 395.885 533.139 396.533 533.139C397.169 533.139 397.681 533.017 398.067 532.773C398.459 532.523 398.658 532.202 398.664 531.81C398.658 531.48 398.519 531.21 398.246 531C397.973 530.784 397.553 530.619 396.985 530.506L394.718 530.054C393.439 529.798 392.488 529.355 391.863 528.724C391.243 528.094 390.934 527.29 390.934 526.312C390.934 525.472 391.161 524.747 391.615 524.139C392.076 523.531 392.721 523.062 393.55 522.733C394.385 522.403 395.363 522.239 396.482 522.239C398.135 522.239 399.436 522.588 400.385 523.287C401.34 523.986 401.897 524.937 402.056 526.142ZM411.603 522.409V525.136H403.72V522.409H411.603ZM405.51 519.273H409.14V531.477C409.14 531.812 409.191 532.074 409.294 532.261C409.396 532.443 409.538 532.571 409.72 532.645C409.907 532.719 410.123 532.756 410.368 532.756C410.538 532.756 410.708 532.741 410.879 532.713C411.049 532.679 411.18 532.653 411.271 532.636L411.842 535.338C411.66 535.395 411.404 535.46 411.075 535.534C410.745 535.614 410.345 535.662 409.873 535.679C408.998 535.713 408.231 535.597 407.572 535.33C406.919 535.062 406.41 534.648 406.047 534.085C405.683 533.523 405.504 532.812 405.51 531.955V519.273ZM419.743 535.756C418.419 535.756 417.274 535.474 416.308 534.912C415.348 534.344 414.606 533.554 414.083 532.543C413.561 531.526 413.299 530.347 413.299 529.006C413.299 527.653 413.561 526.472 414.083 525.46C414.606 524.443 415.348 523.653 416.308 523.091C417.274 522.523 418.419 522.239 419.743 522.239C421.066 522.239 422.208 522.523 423.169 523.091C424.135 523.653 424.879 524.443 425.402 525.46C425.924 526.472 426.186 527.653 426.186 529.006C426.186 530.347 425.924 531.526 425.402 532.543C424.879 533.554 424.135 534.344 423.169 534.912C422.208 535.474 421.066 535.756 419.743 535.756ZM419.76 532.943C420.362 532.943 420.865 532.773 421.268 532.432C421.672 532.085 421.975 531.614 422.18 531.017C422.39 530.42 422.495 529.741 422.495 528.98C422.495 528.219 422.39 527.54 422.18 526.943C421.975 526.347 421.672 525.875 421.268 525.528C420.865 525.182 420.362 525.009 419.76 525.009C419.152 525.009 418.64 525.182 418.225 525.528C417.816 525.875 417.507 526.347 417.297 526.943C417.092 527.54 416.99 528.219 416.99 528.98C416.99 529.741 417.092 530.42 417.297 531.017C417.507 531.614 417.816 532.085 418.225 532.432C418.64 532.773 419.152 532.943 419.76 532.943ZM428.547 535.5V522.409H432.007V524.719H432.16C432.433 523.952 432.887 523.347 433.524 522.903C434.16 522.46 434.922 522.239 435.808 522.239C436.706 522.239 437.47 522.463 438.1 522.912C438.731 523.355 439.152 523.957 439.362 524.719H439.498C439.765 523.969 440.248 523.369 440.947 522.92C441.652 522.466 442.484 522.239 443.444 522.239C444.666 522.239 445.657 522.628 446.419 523.406C447.186 524.179 447.569 525.276 447.569 526.696V535.5H443.947V527.412C443.947 526.685 443.754 526.139 443.368 525.776C442.981 525.412 442.498 525.23 441.919 525.23C441.26 525.23 440.745 525.44 440.376 525.861C440.007 526.276 439.822 526.824 439.822 527.506V535.5H436.302V527.335C436.302 526.693 436.118 526.182 435.748 525.801C435.385 525.42 434.904 525.23 434.308 525.23C433.904 525.23 433.541 525.332 433.217 525.537C432.899 525.736 432.646 526.017 432.458 526.381C432.271 526.739 432.177 527.159 432.177 527.642V535.5H428.547ZM456.06 535.5V518.045H467.617V521.088H459.75V525.247H466.85V528.29H459.75V535.5H456.06ZM470.031 535.5V522.409H473.662V535.5H470.031ZM471.855 520.722C471.315 520.722 470.852 520.543 470.466 520.185C470.085 519.821 469.895 519.386 469.895 518.881C469.895 518.381 470.085 517.952 470.466 517.594C470.852 517.23 471.315 517.048 471.855 517.048C472.395 517.048 472.855 517.23 473.235 517.594C473.622 517.952 473.815 518.381 473.815 518.881C473.815 519.386 473.622 519.821 473.235 520.185C472.855 520.543 472.395 520.722 471.855 520.722ZM482.536 535.756C481.189 535.756 480.03 535.483 479.059 534.938C478.093 534.386 477.348 533.608 476.826 532.602C476.303 531.591 476.042 530.395 476.042 529.014C476.042 527.668 476.303 526.486 476.826 525.469C477.348 524.452 478.084 523.659 479.033 523.091C479.988 522.523 481.107 522.239 482.391 522.239C483.255 522.239 484.059 522.378 484.803 522.656C485.553 522.929 486.206 523.341 486.763 523.892C487.326 524.443 487.763 525.136 488.076 525.972C488.388 526.801 488.544 527.773 488.544 528.886V529.884H477.49V527.634H485.127C485.127 527.111 485.013 526.648 484.786 526.244C484.559 525.841 484.243 525.526 483.84 525.298C483.442 525.065 482.979 524.949 482.451 524.949C481.9 524.949 481.411 525.077 480.985 525.332C480.564 525.582 480.235 525.92 479.996 526.347C479.757 526.767 479.635 527.236 479.63 527.753V529.892C479.63 530.54 479.749 531.099 479.988 531.571C480.232 532.043 480.576 532.406 481.019 532.662C481.462 532.918 481.988 533.045 482.596 533.045C482.999 533.045 483.368 532.989 483.703 532.875C484.039 532.761 484.326 532.591 484.564 532.364C484.803 532.136 484.985 531.858 485.11 531.528L488.468 531.75C488.297 532.557 487.948 533.261 487.419 533.864C486.897 534.46 486.221 534.926 485.391 535.261C484.567 535.591 483.615 535.756 482.536 535.756ZM494.544 518.045V535.5H490.914V518.045H494.544ZM502.277 535.713C501.282 535.713 500.382 535.457 499.575 534.946C498.774 534.429 498.137 533.67 497.666 532.67C497.2 531.665 496.967 530.432 496.967 528.972C496.967 527.472 497.208 526.224 497.691 525.23C498.174 524.23 498.816 523.483 499.618 522.989C500.424 522.489 501.308 522.239 502.268 522.239C503.001 522.239 503.612 522.364 504.1 522.614C504.595 522.858 504.993 523.165 505.294 523.534C505.6 523.898 505.833 524.256 505.993 524.608H506.103V518.045H509.725V535.5H506.146V533.403H505.993C505.822 533.767 505.581 534.128 505.268 534.486C504.961 534.838 504.561 535.131 504.066 535.364C503.578 535.597 502.981 535.713 502.277 535.713ZM503.427 532.824C504.012 532.824 504.507 532.665 504.91 532.347C505.319 532.023 505.632 531.571 505.848 530.991C506.069 530.412 506.18 529.733 506.18 528.955C506.18 528.176 506.072 527.5 505.856 526.926C505.64 526.352 505.328 525.909 504.919 525.597C504.51 525.284 504.012 525.128 503.427 525.128C502.831 525.128 502.328 525.29 501.919 525.614C501.51 525.937 501.2 526.386 500.99 526.96C500.779 527.534 500.674 528.199 500.674 528.955C500.674 529.716 500.779 530.389 500.99 530.974C501.206 531.554 501.515 532.009 501.919 532.338C502.328 532.662 502.831 532.824 503.427 532.824Z" fill="#354D6B"/>
<path d="M468.094 424.291C470.612 427.147 472 430.816 472 434.625V450.25C472 458.866 464.991 465.875 456.375 465.875H412.625C404.009 465.875 397 458.866 397 450.25V434.625C397 426.009 404.009 419 412.625 419H425.125C426.853 419 428.25 420.4 428.25 422.125C428.25 423.85 426.853 425.25 425.125 425.25H412.625C407.456 425.25 403.25 429.456 403.25 434.625V450.25C403.25 455.419 407.456 459.625 412.625 459.625H456.375C461.544 459.625 465.75 455.419 465.75 450.25V434.625C465.75 432.341 464.916 430.138 463.406 428.425C462.266 427.131 462.388 425.156 463.684 424.013C464.975 422.875 466.95 422.997 468.094 424.291ZM412.625 442.438C412.625 445.025 414.725 447.125 417.312 447.125C419.9 447.125 422 445.025 422 442.438C422 439.85 419.9 437.75 417.312 437.75C414.725 437.75 412.625 439.85 412.625 442.438ZM432.938 447.125C435.525 447.125 437.625 445.025 437.625 442.438C437.625 439.85 435.525 437.75 432.938 437.75C430.35 437.75 428.25 439.85 428.25 442.438C428.25 445.025 430.35 447.125 432.938 447.125ZM434.5 428.375V423.419C434.5 420.081 435.8 416.941 438.162 414.581L455.997 396.747C459.653 393.091 465.597 393.091 469.253 396.747C471.022 398.516 472 400.872 472 403.375C472 405.878 471.022 408.234 469.253 410.006L451.419 427.841C449.059 430.2 445.919 431.503 442.581 431.503H437.625C435.897 431.503 434.5 430.103 434.5 428.378V428.375ZM440.75 425.25H442.581C444.25 425.25 445.819 424.6 447 423.419L464.834 405.584C465.425 404.994 465.75 404.209 465.75 403.375C465.75 402.541 465.425 401.756 464.834 401.166C463.613 399.944 461.637 399.947 460.416 401.166L442.581 419C441.419 420.166 440.75 421.775 440.75 423.419V425.25Z" fill="white"/>
<rect x="788" y="115" width="140" height="140" rx="20" fill="#1E88E5"/>
<rect width="140" height="50" transform="translate(788 255)" fill="white"/>
<path d="M796.502 288.5H792.548L798.573 271.045H803.329L809.346 288.5H805.391L801.019 275.034H800.883L796.502 288.5ZM796.255 281.639H805.596V284.52H796.255V281.639ZM811.379 293.409V275.409H814.958V277.608H815.12C815.279 277.256 815.509 276.898 815.81 276.534C816.117 276.165 816.515 275.858 817.004 275.614C817.498 275.364 818.112 275.239 818.844 275.239C819.799 275.239 820.68 275.489 821.487 275.989C822.293 276.483 822.938 277.23 823.421 278.23C823.904 279.224 824.146 280.472 824.146 281.972C824.146 283.432 823.91 284.665 823.438 285.67C822.972 286.67 822.336 287.429 821.529 287.946C820.728 288.457 819.83 288.713 818.836 288.713C818.131 288.713 817.532 288.597 817.038 288.364C816.549 288.131 816.148 287.838 815.836 287.486C815.523 287.128 815.285 286.767 815.12 286.403H815.009V293.409H811.379ZM814.933 281.955C814.933 282.733 815.04 283.412 815.256 283.991C815.472 284.571 815.785 285.023 816.194 285.347C816.603 285.665 817.1 285.824 817.685 285.824C818.276 285.824 818.776 285.662 819.185 285.338C819.594 285.009 819.904 284.554 820.114 283.974C820.33 283.389 820.438 282.716 820.438 281.955C820.438 281.199 820.333 280.534 820.123 279.96C819.913 279.386 819.603 278.937 819.194 278.614C818.785 278.29 818.282 278.128 817.685 278.128C817.094 278.128 816.594 278.284 816.185 278.597C815.782 278.909 815.472 279.352 815.256 279.926C815.04 280.5 814.933 281.176 814.933 281.955ZM832.532 288.756C831.185 288.756 830.026 288.483 829.055 287.938C828.089 287.386 827.344 286.608 826.822 285.602C826.299 284.591 826.038 283.395 826.038 282.014C826.038 280.668 826.299 279.486 826.822 278.469C827.344 277.452 828.08 276.659 829.029 276.091C829.984 275.523 831.103 275.239 832.387 275.239C833.251 275.239 834.055 275.378 834.799 275.656C835.549 275.929 836.202 276.341 836.759 276.892C837.322 277.443 837.759 278.136 838.072 278.972C838.384 279.801 838.54 280.773 838.54 281.886V282.884H827.487V280.634H835.123C835.123 280.111 835.009 279.648 834.782 279.244C834.555 278.841 834.239 278.526 833.836 278.298C833.438 278.065 832.975 277.949 832.447 277.949C831.896 277.949 831.407 278.077 830.981 278.332C830.56 278.582 830.231 278.92 829.992 279.347C829.754 279.767 829.631 280.236 829.626 280.753V282.892C829.626 283.54 829.745 284.099 829.984 284.571C830.228 285.043 830.572 285.406 831.015 285.662C831.458 285.918 831.984 286.045 832.592 286.045C832.995 286.045 833.364 285.989 833.7 285.875C834.035 285.761 834.322 285.591 834.56 285.364C834.799 285.136 834.981 284.858 835.106 284.528L838.464 284.75C838.293 285.557 837.944 286.261 837.415 286.864C836.893 287.46 836.217 287.926 835.387 288.261C834.563 288.591 833.612 288.756 832.532 288.756ZM843.71 275.409L846.113 279.986L848.576 275.409H852.3L848.508 281.955L852.403 288.5H848.695L846.113 283.974L843.573 288.5H839.823L843.71 281.955L839.96 275.409H843.71ZM875.48 277.156H871.747C871.679 276.673 871.54 276.244 871.33 275.869C871.119 275.489 870.849 275.165 870.52 274.898C870.19 274.631 869.81 274.426 869.378 274.284C868.952 274.142 868.489 274.071 867.989 274.071C867.085 274.071 866.298 274.295 865.628 274.744C864.957 275.187 864.438 275.835 864.068 276.688C863.699 277.534 863.514 278.562 863.514 279.773C863.514 281.017 863.699 282.062 864.068 282.909C864.443 283.756 864.966 284.395 865.636 284.827C866.307 285.259 867.082 285.474 867.963 285.474C868.457 285.474 868.915 285.409 869.335 285.278C869.761 285.148 870.139 284.957 870.469 284.707C870.798 284.452 871.071 284.142 871.287 283.778C871.509 283.415 871.662 283 871.747 282.534L875.48 282.551C875.384 283.352 875.142 284.125 874.756 284.869C874.375 285.608 873.861 286.27 873.213 286.855C872.571 287.435 871.804 287.895 870.912 288.236C870.026 288.571 869.023 288.739 867.903 288.739C866.347 288.739 864.955 288.386 863.727 287.682C862.506 286.977 861.54 285.957 860.83 284.622C860.125 283.287 859.773 281.67 859.773 279.773C859.773 277.869 860.131 276.25 860.847 274.915C861.563 273.58 862.534 272.562 863.761 271.864C864.989 271.159 866.369 270.807 867.903 270.807C868.915 270.807 869.852 270.949 870.716 271.233C871.585 271.517 872.355 271.932 873.026 272.477C873.696 273.017 874.241 273.679 874.662 274.463C875.088 275.247 875.361 276.145 875.48 277.156ZM881.689 271.045V288.5H878.058V271.045H881.689ZM888.33 288.747C887.495 288.747 886.751 288.602 886.097 288.312C885.444 288.017 884.927 287.582 884.546 287.009C884.171 286.429 883.984 285.707 883.984 284.844C883.984 284.116 884.117 283.506 884.384 283.011C884.651 282.517 885.015 282.119 885.475 281.818C885.935 281.517 886.458 281.29 887.043 281.136C887.634 280.983 888.254 280.875 888.901 280.812C889.663 280.733 890.276 280.659 890.742 280.591C891.208 280.517 891.546 280.409 891.756 280.267C891.967 280.125 892.072 279.915 892.072 279.636V279.585C892.072 279.045 891.901 278.628 891.56 278.332C891.225 278.037 890.748 277.889 890.129 277.889C889.475 277.889 888.955 278.034 888.569 278.324C888.183 278.608 887.927 278.966 887.802 279.398L884.444 279.125C884.614 278.33 884.95 277.642 885.45 277.062C885.95 276.477 886.594 276.028 887.384 275.716C888.18 275.398 889.1 275.239 890.146 275.239C890.873 275.239 891.569 275.324 892.234 275.494C892.904 275.665 893.498 275.929 894.015 276.287C894.538 276.645 894.95 277.105 895.251 277.668C895.552 278.224 895.702 278.892 895.702 279.67V288.5H892.259V286.685H892.157C891.947 287.094 891.665 287.455 891.313 287.767C890.961 288.074 890.538 288.315 890.043 288.491C889.549 288.662 888.978 288.747 888.33 288.747ZM889.37 286.241C889.904 286.241 890.376 286.136 890.785 285.926C891.194 285.71 891.515 285.42 891.748 285.057C891.981 284.693 892.097 284.281 892.097 283.821V282.432C891.984 282.506 891.827 282.574 891.629 282.636C891.435 282.693 891.217 282.747 890.972 282.798C890.728 282.844 890.484 282.886 890.239 282.926C889.995 282.96 889.773 282.991 889.575 283.02C889.148 283.082 888.776 283.182 888.458 283.318C888.14 283.455 887.893 283.639 887.717 283.872C887.54 284.099 887.452 284.384 887.452 284.724C887.452 285.219 887.631 285.597 887.989 285.858C888.353 286.114 888.813 286.241 889.37 286.241ZM909.411 279.142L906.087 279.347C906.031 279.062 905.908 278.807 905.721 278.58C905.533 278.347 905.286 278.162 904.979 278.026C904.678 277.884 904.317 277.812 903.897 277.812C903.335 277.812 902.86 277.932 902.474 278.17C902.087 278.403 901.894 278.716 901.894 279.108C901.894 279.42 902.019 279.685 902.269 279.901C902.519 280.116 902.948 280.29 903.556 280.42L905.925 280.898C907.198 281.159 908.147 281.58 908.772 282.159C909.397 282.739 909.71 283.5 909.71 284.443C909.71 285.301 909.457 286.054 908.951 286.702C908.451 287.349 907.763 287.855 906.888 288.219C906.019 288.577 905.016 288.756 903.88 288.756C902.147 288.756 900.766 288.395 899.738 287.673C898.715 286.946 898.116 285.957 897.94 284.707L901.511 284.52C901.619 285.048 901.88 285.452 902.295 285.73C902.71 286.003 903.241 286.139 903.888 286.139C904.525 286.139 905.036 286.017 905.423 285.773C905.815 285.523 906.013 285.202 906.019 284.81C906.013 284.48 905.874 284.21 905.602 284C905.329 283.784 904.908 283.619 904.34 283.506L902.073 283.054C900.795 282.798 899.843 282.355 899.218 281.724C898.599 281.094 898.289 280.29 898.289 279.312C898.289 278.472 898.516 277.747 898.971 277.139C899.431 276.531 900.076 276.062 900.906 275.733C901.741 275.403 902.718 275.239 903.837 275.239C905.491 275.239 906.792 275.588 907.741 276.287C908.695 276.986 909.252 277.937 909.411 279.142ZM922.888 279.142L919.564 279.347C919.507 279.062 919.385 278.807 919.197 278.58C919.01 278.347 918.763 278.162 918.456 278.026C918.155 277.884 917.794 277.812 917.374 277.812C916.811 277.812 916.337 277.932 915.95 278.17C915.564 278.403 915.371 278.716 915.371 279.108C915.371 279.42 915.496 279.685 915.746 279.901C915.996 280.116 916.425 280.29 917.033 280.42L919.402 280.898C920.675 281.159 921.624 281.58 922.249 282.159C922.874 282.739 923.186 283.5 923.186 284.443C923.186 285.301 922.933 286.054 922.428 286.702C921.928 287.349 921.24 287.855 920.365 288.219C919.496 288.577 918.493 288.756 917.357 288.756C915.624 288.756 914.243 288.395 913.214 287.673C912.192 286.946 911.592 285.957 911.416 284.707L914.987 284.52C915.095 285.048 915.357 285.452 915.771 285.73C916.186 286.003 916.717 286.139 917.365 286.139C918.001 286.139 918.513 286.017 918.899 285.773C919.291 285.523 919.49 285.202 919.496 284.81C919.49 284.48 919.351 284.21 919.078 284C918.805 283.784 918.385 283.619 917.817 283.506L915.55 283.054C914.271 282.798 913.32 282.355 912.695 281.724C912.075 281.094 911.766 280.29 911.766 279.312C911.766 278.472 911.993 277.747 912.447 277.139C912.908 276.531 913.553 276.062 914.382 275.733C915.217 275.403 916.195 275.239 917.314 275.239C918.967 275.239 920.268 275.588 921.217 276.287C922.172 276.986 922.729 277.937 922.888 279.142Z" fill="#354D6B"/>
<path d="M846.916 195C845.697 196.219 845.697 198.2 846.916 199.422L853.225 205.731C854.447 206.953 854.447 208.928 853.225 210.15C852.616 210.759 851.816 211.066 851.016 211.066C850.216 211.066 849.416 210.759 848.806 210.15L842.497 203.841C838.841 200.187 838.841 194.238 842.497 190.581L848.941 184.137C850.163 182.916 852.138 182.916 853.359 184.137C854.581 185.356 854.581 187.334 853.359 188.556L846.916 195ZM868.059 184.134C866.838 182.913 864.863 182.913 863.641 184.134C862.419 185.353 862.419 187.331 863.641 188.553L870.084 194.997C871.303 196.216 871.303 198.197 870.084 199.419L863.775 205.728C862.553 206.95 862.553 208.925 863.775 210.147C864.384 210.756 865.184 211.062 865.984 211.062C866.784 211.062 867.584 210.756 868.194 210.147L874.503 203.837C878.159 200.184 878.159 194.234 874.503 190.578L868.059 184.134ZM889.75 179.766V206.375C889.75 214.991 882.741 222 874.125 222H842.875C834.259 222 827.25 214.991 827.25 206.375V162.625C827.25 154.009 834.259 147 842.875 147H856.984C862.828 147 868.319 149.275 872.453 153.406L883.344 164.297C887.475 168.428 889.75 173.922 889.75 179.766ZM868.031 157.825C867.038 156.831 865.934 155.991 864.75 155.309V168.875C864.75 170.597 866.153 172 867.875 172H881.441C880.759 170.816 879.919 169.709 878.925 168.719L868.034 157.828L868.031 157.825ZM883.5 179.766C883.5 179.256 883.475 178.75 883.428 178.25H867.875C862.706 178.25 858.5 174.044 858.5 168.875V153.322C858 153.275 857.494 153.25 856.984 153.25H842.875C837.706 153.25 833.5 157.456 833.5 162.625V206.375C833.5 211.544 837.706 215.75 842.875 215.75H874.125C879.294 215.75 883.5 211.544 883.5 206.375V179.766Z" fill="white"/>
<path d="M263.5 430.5L261.814 434.128L263.5 430.5ZM342.091 441.54C343.493 439.833 343.246 437.312 341.54 435.91L313.725 413.055C312.018 411.652 309.497 411.899 308.095 413.606C306.692 415.313 306.939 417.834 308.646 419.236L333.37 439.551L313.055 464.276C311.652 465.982 311.899 468.503 313.606 469.906C315.313 471.308 317.834 471.061 319.236 469.354L342.091 441.54ZM207 390C203.827 392.436 203.828 392.437 203.829 392.438C203.829 392.439 203.831 392.44 203.831 392.441C203.833 392.443 203.835 392.446 203.837 392.449C203.842 392.454 203.847 392.461 203.853 392.47C203.866 392.486 203.884 392.508 203.905 392.536C203.948 392.59 204.008 392.666 204.085 392.761C204.238 392.952 204.46 393.224 204.752 393.569C205.336 394.26 206.199 395.247 207.353 396.48C209.659 398.945 213.127 402.392 217.843 406.412C227.276 414.452 241.703 424.783 261.814 434.128L263.5 430.5L265.186 426.872C245.797 417.864 231.974 407.944 223.032 400.323C218.561 396.512 215.31 393.275 213.194 391.014C212.137 389.884 211.363 388.998 210.863 388.406C210.613 388.11 210.431 387.888 210.317 387.745C210.259 387.674 210.219 387.623 210.195 387.593C210.183 387.577 210.175 387.567 210.172 387.563C210.17 387.56 210.169 387.559 210.169 387.559C210.169 387.56 210.17 387.56 210.17 387.561C210.171 387.561 210.171 387.562 210.172 387.562C210.172 387.563 210.173 387.564 207 390ZM263.5 430.5L261.814 434.128C276.704 441.046 296.256 443.182 311.717 443.67C319.517 443.916 326.414 443.746 331.363 443.513C333.84 443.397 335.833 443.265 337.213 443.162C337.903 443.11 338.441 443.066 338.809 443.034C338.993 443.018 339.135 443.005 339.232 442.996C339.281 442.991 339.319 442.988 339.345 442.985C339.358 442.984 339.369 442.983 339.376 442.982C339.38 442.982 339.383 442.982 339.385 442.982C339.386 442.981 339.387 442.981 339.388 442.981C339.389 442.981 339.39 442.981 339 439C338.61 435.019 338.611 435.019 338.611 435.019C338.611 435.019 338.611 435.019 338.611 435.019C338.61 435.019 338.609 435.019 338.607 435.019C338.603 435.02 338.596 435.021 338.587 435.021C338.567 435.023 338.537 435.026 338.495 435.03C338.412 435.038 338.285 435.049 338.116 435.064C337.778 435.093 337.273 435.135 336.616 435.184C335.302 435.283 333.383 435.41 330.988 435.522C326.195 435.747 319.513 435.912 311.969 435.674C296.743 435.194 278.545 433.08 265.186 426.872L263.5 430.5Z" fill="#6C757D"/>
<path d="M535 319L532.064 316.283L535 319ZM575.221 243.628C573.912 241.849 571.408 241.469 569.629 242.779L540.639 264.123C538.86 265.433 538.479 267.937 539.789 269.716C541.099 271.495 543.603 271.875 545.382 270.565L571.151 251.593L590.123 277.362C591.433 279.141 593.937 279.521 595.716 278.211C597.495 276.901 597.876 274.397 596.566 272.618L575.221 243.628ZM516 337C512.837 334.551 512.837 334.552 512.836 334.552C512.836 334.552 512.836 334.553 512.836 334.553C512.835 334.554 512.834 334.555 512.833 334.557C512.831 334.559 512.828 334.563 512.824 334.568C512.817 334.577 512.808 334.589 512.795 334.606C512.771 334.638 512.736 334.683 512.692 334.741C512.605 334.855 512.483 335.016 512.34 335.208C512.057 335.586 511.676 336.106 511.316 336.629C510.994 337.096 510.552 337.76 510.254 338.362C510.172 338.527 510.062 338.765 509.965 339.044C509.895 339.247 509.699 339.835 509.716 340.589C509.734 341.406 510.105 343.359 512.175 344.249C513.674 344.893 514.979 344.416 515.22 344.329C515.97 344.062 516.571 343.606 516.821 343.416C517.186 343.138 517.593 342.792 518.037 342.394C518.932 341.591 520.154 340.413 521.792 338.764C525.076 335.455 530.176 330.102 537.936 321.717L535 319L532.064 316.283C524.324 324.648 519.299 329.92 516.115 333.127C514.518 334.736 513.42 335.788 512.693 336.44C512.327 336.769 512.098 336.957 511.975 337.051C511.737 337.232 511.999 336.985 512.53 336.796C512.661 336.749 513.887 336.277 515.334 336.899C517.352 337.766 517.697 339.669 517.714 340.409C517.729 341.087 517.555 341.574 517.527 341.655C517.473 341.813 517.425 341.908 517.422 341.913C517.415 341.928 517.447 341.864 517.55 341.701C517.643 341.552 517.763 341.371 517.903 341.168C518.183 340.762 518.498 340.332 518.75 339.994C518.875 339.827 518.98 339.688 519.054 339.591C519.09 339.543 519.119 339.506 519.138 339.481C519.147 339.469 519.154 339.46 519.158 339.455C519.16 339.452 519.162 339.45 519.163 339.449C519.163 339.448 519.163 339.448 519.163 339.448C519.163 339.448 519.163 339.448 519.163 339.448C519.163 339.448 519.163 339.449 516 337ZM535 319L537.936 321.717C553.874 304.494 563.36 285.761 568.862 271.366C571.616 264.161 573.381 258.018 574.461 253.657C575.001 251.476 575.371 249.738 575.607 248.532C575.725 247.93 575.81 247.46 575.867 247.134C575.895 246.971 575.916 246.845 575.93 246.755C575.938 246.711 575.943 246.675 575.947 246.649C575.949 246.636 575.951 246.626 575.952 246.618C575.953 246.614 575.953 246.61 575.954 246.607C575.954 246.606 575.954 246.604 575.955 246.604C575.955 246.602 575.955 246.601 572 246C568.046 245.399 568.046 245.398 568.046 245.397C568.046 245.397 568.046 245.396 568.046 245.396C568.046 245.396 568.046 245.396 568.046 245.397C568.046 245.398 568.045 245.402 568.044 245.408C568.042 245.42 568.039 245.442 568.034 245.473C568.024 245.535 568.007 245.635 567.984 245.769C567.937 246.039 567.863 246.45 567.757 246.993C567.544 248.079 567.202 249.688 566.696 251.734C565.682 255.826 564.01 261.652 561.389 268.509C556.141 282.239 547.126 300.007 532.064 316.283L535 319Z" fill="#6C757D"/>
<path d="M609.007 517.617C610.729 516.232 611.001 513.714 609.617 511.993L587.05 483.944C585.665 482.222 583.147 481.95 581.426 483.334C579.705 484.719 579.432 487.237 580.817 488.958L600.876 513.891L575.943 533.95C574.222 535.335 573.949 537.853 575.334 539.574C576.719 541.295 579.237 541.568 580.958 540.183L609.007 517.617ZM529 465C525.459 466.861 525.46 466.862 525.46 466.863C525.46 466.863 525.461 466.864 525.461 466.865C525.462 466.866 525.463 466.868 525.464 466.87C525.466 466.875 525.469 466.88 525.473 466.886C525.48 466.899 525.489 466.917 525.5 466.938C525.523 466.981 525.555 467.041 525.597 467.118C525.68 467.271 525.801 467.489 525.958 467.768C526.272 468.326 526.734 469.125 527.341 470.122C528.554 472.114 530.35 474.902 532.705 478.134C537.404 484.581 544.394 492.876 553.509 500.13L556 497L558.491 493.87C550.106 487.198 543.596 479.494 539.17 473.422C536.963 470.394 535.29 467.793 534.174 465.962C533.617 465.046 533.2 464.325 532.927 463.84C532.79 463.597 532.689 463.414 532.625 463.295C532.593 463.236 532.569 463.193 532.555 463.167C532.548 463.153 532.544 463.144 532.541 463.14C532.54 463.138 532.539 463.136 532.539 463.136C532.539 463.136 532.539 463.136 532.54 463.137C532.54 463.137 532.54 463.138 532.54 463.138C532.54 463.138 532.541 463.139 529 465ZM556 497L553.509 500.13C562.949 507.642 576.262 512.182 586.834 514.85C592.186 516.201 596.972 517.105 600.422 517.671C602.149 517.955 603.547 518.154 604.519 518.284C605.005 518.349 605.385 518.396 605.648 518.428C605.779 518.444 605.88 518.456 605.951 518.464C605.987 518.468 606.014 518.471 606.034 518.473C606.044 518.474 606.052 518.475 606.058 518.476C606.061 518.476 606.063 518.476 606.065 518.476C606.066 518.476 606.067 518.477 606.067 518.477C606.068 518.477 606.069 518.477 606.5 514.5C606.931 510.523 606.931 510.523 606.932 510.523C606.932 510.523 606.932 510.524 606.932 510.524C606.932 510.524 606.931 510.523 606.93 510.523C606.928 510.523 606.924 510.523 606.918 510.522C606.906 510.521 606.886 510.518 606.858 510.515C606.803 510.509 606.718 510.499 606.603 510.485C606.373 510.458 606.027 510.415 605.577 510.354C604.676 510.234 603.358 510.046 601.718 509.777C598.434 509.238 593.876 508.377 588.791 507.094C578.488 504.493 566.551 500.284 558.491 493.87L556 497Z" fill="#6C757D"/>
<path d="M769.007 212.617C770.729 211.232 771.001 208.714 769.617 206.993L747.05 178.944C745.665 177.222 743.147 176.95 741.426 178.334C739.705 179.719 739.432 182.237 740.817 183.958L760.876 208.891L735.943 228.95C734.222 230.335 733.949 232.853 735.334 234.574C736.719 236.295 739.237 236.568 740.958 235.183L769.007 212.617ZM689 160C685.459 161.861 685.46 161.862 685.46 161.863C685.46 161.863 685.461 161.864 685.461 161.865C685.462 161.866 685.463 161.868 685.464 161.87C685.466 161.875 685.469 161.88 685.473 161.886C685.48 161.899 685.489 161.917 685.5 161.938C685.523 161.981 685.555 162.041 685.597 162.118C685.68 162.271 685.801 162.489 685.958 162.768C686.272 163.326 686.734 164.125 687.341 165.122C688.554 167.114 690.35 169.902 692.705 173.134C697.404 179.581 704.394 187.876 713.509 195.13L716 192L718.491 188.87C710.106 182.198 703.596 174.494 699.17 168.422C696.963 165.394 695.29 162.793 694.174 160.962C693.617 160.046 693.2 159.325 692.927 158.84C692.79 158.597 692.689 158.414 692.625 158.295C692.593 158.236 692.569 158.193 692.555 158.167C692.548 158.153 692.544 158.144 692.541 158.14C692.54 158.138 692.539 158.136 692.539 158.136C692.539 158.136 692.539 158.136 692.54 158.137C692.54 158.137 692.54 158.138 692.54 158.138C692.54 158.138 692.541 158.139 689 160ZM716 192L713.509 195.13C722.949 202.642 736.262 207.182 746.834 209.85C752.186 211.201 756.972 212.105 760.422 212.671C762.149 212.955 763.547 213.154 764.519 213.284C765.005 213.349 765.385 213.396 765.648 213.428C765.779 213.444 765.88 213.456 765.951 213.464C765.987 213.468 766.014 213.471 766.034 213.473C766.044 213.474 766.052 213.475 766.058 213.476C766.061 213.476 766.063 213.476 766.065 213.476C766.066 213.476 766.067 213.477 766.067 213.477C766.068 213.477 766.069 213.477 766.5 209.5C766.931 205.523 766.931 205.523 766.932 205.523C766.932 205.523 766.932 205.524 766.932 205.524C766.932 205.524 766.931 205.523 766.93 205.523C766.928 205.523 766.924 205.523 766.918 205.522C766.906 205.521 766.886 205.518 766.858 205.515C766.803 205.509 766.718 205.499 766.603 205.485C766.373 205.458 766.027 205.415 765.577 205.354C764.676 205.234 763.358 205.046 761.718 204.777C758.434 204.238 753.876 203.377 748.791 202.094C738.488 199.493 726.551 195.284 718.491 188.87L716 192Z" fill="#6C757D"/>
<path d="M383 318.26L379.464 320.131L379.464 320.131L383 318.26ZM393.644 345.763C395.723 346.512 398.015 345.434 398.763 343.356L410.963 309.486C411.712 307.407 410.634 305.116 408.555 304.367C406.477 303.618 404.185 304.696 403.437 306.775L392.592 336.881L362.486 326.037C360.407 325.288 358.116 326.366 357.367 328.445C356.618 330.523 357.696 332.815 359.775 333.563L393.644 345.763ZM367 297C364.439 300.072 364.438 300.072 364.437 300.071C364.437 300.071 364.436 300.07 364.436 300.07C364.435 300.069 364.434 300.069 364.434 300.068C364.432 300.067 364.432 300.067 364.432 300.066C364.431 300.066 364.433 300.068 364.437 300.071C364.444 300.077 364.459 300.09 364.482 300.11C364.528 300.15 364.605 300.217 364.71 300.311C364.92 300.499 365.243 300.796 365.662 301.201C366.498 302.012 367.713 303.255 369.161 304.931C372.059 308.283 375.877 313.351 379.464 320.131L383 318.26L386.536 316.389C382.623 308.996 378.441 303.434 375.214 299.699C373.599 297.831 372.22 296.417 371.229 295.456C370.733 294.976 370.334 294.608 370.05 294.354C369.908 294.226 369.794 294.127 369.712 294.056C369.671 294.021 369.638 293.992 369.613 293.971C369.6 293.96 369.589 293.951 369.581 293.944C369.577 293.94 369.573 293.937 369.57 293.935C369.568 293.933 369.566 293.932 369.565 293.931C369.564 293.93 369.564 293.929 369.563 293.929C369.562 293.928 369.561 293.928 367 297ZM383 318.26L379.464 320.131C383.195 327.181 386.179 333.084 388.228 337.221C389.253 339.288 390.043 340.914 390.576 342.021C390.843 342.574 391.045 342.997 391.18 343.28C391.248 343.422 391.298 343.529 391.332 343.6C391.349 343.635 391.361 343.662 391.369 343.679C391.373 343.687 391.376 343.694 391.378 343.698C391.379 343.7 391.38 343.701 391.38 343.702C391.38 343.702 391.38 343.702 391.38 343.703C391.38 343.703 391.38 343.703 391.38 343.703C391.38 343.703 391.38 343.703 395 342C398.62 340.297 398.62 340.297 398.619 340.297C398.619 340.297 398.619 340.297 398.619 340.297C398.619 340.296 398.619 340.295 398.618 340.295C398.618 340.293 398.617 340.291 398.615 340.288C398.613 340.283 398.609 340.275 398.605 340.266C398.595 340.246 398.581 340.217 398.563 340.178C398.527 340.102 398.474 339.99 398.404 339.842C398.263 339.547 398.055 339.112 397.783 338.547C397.238 337.416 396.435 335.765 395.397 333.669C393.321 329.479 390.305 323.512 386.536 316.389L383 318.26Z" fill="#6C757D"/>
<defs>
<clipPath id="clip0_29_10">
<rect width="75" height="75" fill="white" transform="translate(64 299)"/>
</clipPath>
<clipPath id="clip1_29_10">
<rect width="75" height="75" fill="white" transform="translate(562 74)"/>
</clipPath>
</defs>
</svg>
