<?xml version="1.0" standalone="no"?>
<!DOCTYPE svg PUBLIC "-//W3C//DTD SVG 20010904//EN"
 "http://www.w3.org/TR/2001/REC-SVG-20010904/DTD/svg10.dtd">
<svg version="1.0" xmlns="http://www.w3.org/2000/svg"
 width="256.000000pt" height="256.000000pt" viewBox="0 0 256.000000 256.000000"
 preserveAspectRatio="xMidYMid meet">

<g transform="translate(0.000000,256.000000) scale(0.100000,-0.100000)"
fill="#000000" stroke="none">
<path d="M630 2113 c-136 -71 -87 -283 66 -283 64 0 111 24 134 70 36 71 18
159 -42 203 -38 28 -114 33 -158 10z"/>
<path d="M1360 1909 c-113 -22 -226 -106 -294 -217 -31 -52 -42 -88 -60 -207
-6 -44 21 -150 57 -224 36 -73 100 -133 199 -189 62 -35 64 -36 184 -36 l121
-1 99 50 c109 55 128 75 190 202 84 169 44 377 -96 506 -113 105 -251 145
-400 116z m240 -115 c152 -69 237 -243 196 -402 -49 -193 -233 -305 -422 -259
-316 78 -371 507 -83 652 99 51 209 54 309 9z"/>
<path d="M1375 1661 c-77 -36 -115 -95 -115 -181 0 -60 13 -96 48 -133 96
-102 255 -84 322 35 28 50 32 137 8 183 -53 101 -164 142 -263 96z"/>
<path d="M453 1520 c-125 -64 -79 -250 63 -250 100 0 166 113 114 197 -40 67
-109 87 -177 53z"/>
<path d="M635 910 c-62 -40 -81 -118 -45 -177 55 -90 168 -93 227 -4 27 40 29
76 8 129 -27 67 -126 94 -190 52z"/>
<path d="M1183 739 c-105 -19 -157 -124 -109 -217 52 -100 206 -95 259 8 52
101 -40 229 -150 209z"/>
</g>
</svg>
